#!OML:ASF E:\emotionWalksFemale\Project 1\Capture day 1\Session 1\Female1.ASF
:FULLY-SPECIFIED
:DEGREES
204
root 9.35716 14.6042 9.92565 -151.923 -4.74581 -180.85
lowerback 27.2678 1.60468 1.80503
upperback 0.0193634 2.42106 0.140113
thorax -15.2479 0.818969 -1.80064
lowerneck -13.715 -5.54694 -12.7753
upperneck -17.5825 -7.90462 7.42826
head -2.41111 -4.55286 4.25178
rclavicle -1.86858e-014 0
rhumerus 61.3756 -26.3069 -36.7802
rradius 81.9713
rwrist -8.1812
rhand -27.0492 -54.1753
rfingers 7.12502
rthumb -0.467607 -84.1545
lclavicle -1.86858e-014 0
lhumerus 77.9361 27.2811 70.9611
lradius 54.3891
lwrist 8.55985
lhand -26.2245 -72.0322
lfingers 7.12502
lthumb 0.328921 -42.0528
rfemur -35.942 -3.59128 27.7106
rtibia 59.3363
rfoot -17.0228 -19.27
rtoes -8.70202
lfemur -41.7267 4.35774 -21.8445
ltibia 63.7126
lfoot -19.402 1.54145
ltoes -28.1582
205
root 9.34784 14.7529 9.66396 -152.714 -4.58296 -180.836
lowerback 26.6222 1.58702 1.69025
upperback -0.195869 2.37479 0.0559129
thorax -15.149 0.819539 -1.80155
lowerneck -13.5938 -5.51782 -12.6255
upperneck -17.102 -7.82452 7.28106
head -2.29899 -4.48352 4.16931
rclavicle 4.37326e-014 -7.95139e-016
rhumerus 62.913 -27.3455 -36.7721
rradius 81.6001
rwrist -9.69846
rhand -27.0909 -53.2998
rfingers 7.12502
rthumb -0.507916 -83.2789
lclavicle 4.37326e-014 -7.95139e-016
lhumerus 79.4397 27.7595 70.4108
lradius 54.0228
lwrist 8.90977
lhand -25.4325 -71.0181
lfingers 7.12502
lthumb 1.09381 -41.0412
rfemur -32.7323 -4.29648 27.525
rtibia 56.0592
rfoot -14.604 -18.2262
rtoes -10.0997
lfemur -38.676 4.50046 -21.6611
ltibia 60.9746
lfoot -17.2236 1.34346
ltoes -30.1429
206
root 9.33795 14.8993 9.40687 -153.559 -4.49826 -180.679
lowerback 26.0516 1.53736 1.78303
upperback -0.385347 2.34987 -0.00196552
thorax -15.0502 0.812064 -1.90059
lowerneck -13.7015 -5.41064 -12.3337
upperneck -16.3622 -7.6374 6.84605
head -2.10533 -4.35648 3.9646
rclavicle -4.37326e-015 1.07344e-014
rhumerus 63.7536 -28.6637 -36.4376
rradius 81.5802
rwrist -11.0183
rhand -26.55 -52.2197
rfingers 7.12502
rthumb 0.0145214 -82.1994
lclavicle -4.37326e-015 1.07344e-014
lhumerus 80.3075 28.4694 69.0397
lradius 53.6043
lwrist 9.41903
lhand -24.7923 -69.9476
lfingers 7.12502
lthumb 1.71212 -39.9748
rfemur -29.4673 -4.9852 27.4726
rtibia 52.5784
rfoot -11.9482 -17.2991
rtoes -10.8202
lfemur -35.4761 4.56588 -21.2245
ltibia 58.0938
lfoot -14.9201 0.579392
ltoes -28.5372
207
root 9.32991 15.0606 9.1271 -154.614 -4.37887 -180.569
lowerback 25.5335 1.50899 1.78314
upperback -0.553172 2.32174 -0.0506917
thorax -14.9576 0.808912 -1.93522
lowerneck -13.7629 -5.24686 -12.0145
upperneck -15.457 -7.35093 6.36373
head -1.87734 -4.17011 3.74293
rclavicle -2.54444e-014 -9.93923e-015
rhumerus 64.3143 -29.7519 -35.9292
rradius 80.8854
rwrist -11.3967
rhand -25.5753 -50.4815
rfingers 7.12502
rthumb 0.955976 -80.4591
lclavicle -2.54444e-014 -9.93923e-015
lhumerus 80.5398 29.3364 67.1267
lradius 53.1241
lwrist 9.96108
lhand -24.1917 -68.7135
lfingers 7.12502
lthumb 2.29219 -38.7461
rfemur -25.6865 -5.69891 27.3009
rtibia 48.818
rfoot -8.79731 -16.4968
rtoes -10.4375
lfemur -31.8163 4.59921 -20.7993
ltibia 54.9401
lfoot -12.3407 -0.0817674
ltoes -26.9786
208
root 9.31997 15.226 8.82878 -155.598 -4.32295 -180.62
lowerback 24.7626 1.40937 1.72056
upperback -0.73874 2.17458 -0.144954
thorax -14.7457 0.760093 -1.9352
lowerneck -13.905 -5.12061 -11.645
upperneck -14.4838 -7.08949 6.06903
head -1.60389 -4.00231 3.5673
rclavicle 3.37934e-014 -3.97569e-015
rhumerus 64.4822 -30.6962 -34.9011
rradius 79.2855
rwrist -10.8376
rhand -24.3032 -48.7014
rfingers 7.12502
rthumb 2.18456 -78.6699
lclavicle 3.37934e-014 -3.97569e-015
lhumerus 79.9346 30.2562 64.3926
lradius 52.6707
lwrist 10.2716
lhand -23.2325 -67.3263
lfingers 7.12502
lthumb 3.21855 -37.3708
rfemur -21.7475 -6.35178 26.913
rtibia 44.7306
rfoot -5.43664 -15.6359
rtoes -8.78899
lfemur -28.154 4.46868 -20.5494
ltibia 51.476
lfoot -9.28457 -0.421352
ltoes -26.2745
209
root 9.30757 15.3843 8.5255 -156.482 -4.32148 -180.59
lowerback 23.7124 1.27157 1.79141
upperback -0.956196 2.01627 -0.234606
thorax -14.4044 0.700471 -1.99625
lowerneck -13.8733 -4.99601 -11.3479
upperneck -13.3641 -6.84757 5.70105
head -1.43731 -3.82375 3.674
rclavicle 3.69739e-014 -3.97569e-016
rhumerus 64.1899 -31.5605 -33.0589
rradius 77.1541
rwrist -9.65266
rhand -22.3773 -48.2431
rfingers 7.12502
rthumb 4.04442 -78.1845
lclavicle 3.69739e-014 -3.97569e-016
lhumerus 78.8118 31.0668 60.8058
lradius 51.7713
lwrist 10.1216
lhand -21.6896 -65.5628
lfingers 7.12502
lthumb 4.7085 -35.6351
rfemur -17.7913 -6.728 26.5809
rtibia 40.2614
rfoot -2.05025 -14.9271
rtoes -8.16112
lfemur -24.5224 4.24526 -20.208
ltibia 47.7428
lfoot -5.85979 -0.678907
ltoes -25.5437
